<?xml version="1.0" encoding="utf-8"?>
<!-- Svg Vector Icons : http://www.onlinewebfonts.com/icon -->
<!DOCTYPE svg PUBLIC "-//W3C//DTD SVG 1.1//EN" "http://www.w3.org/Graphics/SVG/1.1/DTD/svg11.dtd">
<svg version="1.1" xmlns="http://www.w3.org/2000/svg" xmlns:xlink="http://www.w3.org/1999/xlink" x="0px" y="0px" viewBox="0 0 1000 1000" enable-background="new 0 0 1000 1000" xml:space="preserve">
<metadata> Svg Vector Icons : http://www.onlinewebfonts.com/icon </metadata>
<g><g transform="translate(0.000000,511.000000) scale(0.100000,-0.100000)"><path d="M7991.7,4653.1c-160.3-119.7-1786.3-1772.8-1847.3-1878.9c-117.4-207.8-133.3-295.8-151.3-824.3c-13.5-483.3-15.8-499.1-79-621c-74.5-149.1-189.7-307.1-388.4-533l-149-171.6L5597.9,403l223.6-223.6L5957,305.9c198.7,185.2,460.7,372.6,602.9,433.6c110.7,47.4,169.4,54.2,618.8,70c562.3,18.1,666.2,42.9,864.9,203.2c58.7,47.4,499.1,481,982.4,964.3c842.3,846.9,874,880.7,874,964.3c0,117.4-97.1,216.8-216.8,216.8c-83.6,0-117.4-29.4-858.2-770.1c-684.3-682-779.1-767.8-833.3-761c-83.6,9-158.1,106.1-135.5,178.4c9,29.4,354.6,395.2,770.1,810.7c724.9,727.2,754.3,761,754.3,844.6c0,65.5-15.8,101.6-67.8,153.6c-61,61-81.3,67.7-162.6,56.5c-85.8-11.3-144.5-63.2-851.4-770.1c-822-819.8-828.8-824.3-925.9-700.1c-27.1,33.9-47.4,76.8-47.4,94.8c0,20.3,345.5,381.7,767.8,806.2c767.8,770.1,767.8,772.3,767.8,867.2c0,76.8-13.5,110.7-65.5,162.6c-74.5,72.3-151.3,83.5-246.1,33.9c-33.9-18.1-390.7-363.6-794.9-767.8c-794.9-797.2-801.7-804-901.1-675.2c-31.6,38.4-42.9,76.8-33.9,106.1c6.8,27.1,352.3,388.4,767.8,804c747.5,752,754.3,758.8,754.3,851.4c0,119.7-70,207.8-180.7,223.6C8097.9,4718.6,8064,4707.3,7991.7,4653.1z"/><path d="M573.2,4583.1c-173.9-56.5-329.7-194.2-411-361.3c-79-162.6-83.6-469.7-9-752C297.7,2902.9,629.7,2275.1,1158.1,1566C2000.5,439.1,3066.4-475.5,3811.6-701.3c158.1-49.7,551-103.9,573.6-81.3c9,6.8,822-794.9,1811.2-1781.8c1707.3-1705,1802.1-1795.3,1926.3-1840.5c363.6-133.2,752,24.9,919.1,370.4c81.3,169.4,79,429.1-4.5,598.4c-51.9,103.9-663.9,724.9-3929.4,3988.2C1313.9,4341.4,1237.2,4418.2,1067.8,4501.8C887.1,4587.6,688.4,4621.5,573.2,4583.1z"/><path d="M3079.9-1424c-329.7-282.3-964.3-822-1411.4-1201.4c-770.1-650.4-817.5-693.3-887.5-831c-63.3-126.5-72.3-167.1-72.3-316.2c0-142.3,11.3-194.2,63.2-307.1c187.4-393,668.4-530.7,1034.3-298.1c42.9,27.1,313.9,329.7,603,670.7c526.2,623.3,1989.6,2337.3,2077.6,2434.4l47.4,49.7l-97.1,99.4c-90.3,92.6-108.4,99.4-248.4,115.2c-126.5,11.3-359.1,56.5-476.5,90.3C3691.9-913.6,3436.7-1116.8,3079.9-1424z"/></g></g>
</svg>