<svg width="836" height="438" viewBox="0 0 836 438" fill="none" xmlns="http://www.w3.org/2000/svg">
<path opacity="0.1" d="M63.8621 354.57C88.7149 354.57 108.862 347.407 108.862 338.57C108.862 329.733 88.7149 322.57 63.8621 322.57C39.0092 322.57 18.8621 329.733 18.8621 338.57C18.8621 347.407 39.0092 354.57 63.8621 354.57Z" fill="#171D26"/>
<path opacity="0.1" d="M790.842 420.72C815.695 420.72 835.842 413.556 835.842 404.72C835.842 395.883 815.695 388.72 790.842 388.72C765.989 388.72 745.842 395.883 745.842 404.72C745.842 413.556 765.989 420.72 790.842 420.72Z" fill="#171D26"/>
<path d="M789.022 406.99C789.022 406.99 801.022 366.15 786.762 336.09C780.689 323.52 778.857 309.319 781.542 295.62C782.868 289.125 784.786 282.765 787.272 276.62" stroke="#535461" stroke-width="2" stroke-miterlimit="10"/>
<path d="M778.392 257.63C778.392 262.63 787.452 277.15 787.452 277.15C787.452 277.15 796.512 262.64 796.512 257.63C796.512 255.226 795.557 252.92 793.857 251.22C792.157 249.52 789.851 248.565 787.447 248.565C785.043 248.565 782.737 249.52 781.037 251.22C779.337 252.92 778.382 255.226 778.382 257.63H778.392Z" fill="#FFC550"/>
<path d="M763.412 285.36C766.132 289.56 781.632 296.82 781.632 296.82C781.632 296.82 781.352 279.71 778.632 275.51C777.985 274.511 777.148 273.65 776.168 272.975C775.189 272.299 774.086 271.824 772.922 271.575C771.759 271.326 770.557 271.309 769.387 271.524C768.217 271.739 767.101 272.183 766.102 272.83C765.103 273.477 764.242 274.314 763.567 275.294C762.891 276.273 762.416 277.376 762.167 278.54C761.918 279.703 761.901 280.905 762.116 282.075C762.332 283.245 762.775 284.361 763.422 285.36H763.412Z" fill="#FFC550"/>
<path d="M764.062 332.73C768.532 334.98 785.572 333.43 785.572 333.43C785.572 333.43 776.692 318.8 772.222 316.55C770.076 315.468 767.589 315.282 765.307 316.034C763.024 316.787 761.134 318.414 760.052 320.56C758.97 322.706 758.785 325.193 759.537 327.475C760.289 329.758 761.916 331.648 764.062 332.73V332.73Z" fill="#FFC550"/>
<path d="M772.632 368.47C776.632 371.47 793.712 372.79 793.712 372.79C793.712 372.79 787.432 356.87 783.412 353.9C781.48 352.47 779.059 351.867 776.682 352.222C774.305 352.578 772.167 353.863 770.737 355.795C769.308 357.727 768.704 360.148 769.059 362.525C769.415 364.902 770.7 367.04 772.632 368.47V368.47Z" fill="#FFC550"/>
<path d="M800.652 297.79C797.062 301.28 780.332 304.89 780.332 304.89C780.332 304.89 784.432 288.28 788.022 284.79C789.746 283.115 792.065 282.194 794.468 282.228C796.871 282.263 799.162 283.251 800.837 284.975C802.512 286.699 803.433 289.018 803.399 291.421C803.364 293.824 802.376 296.115 800.652 297.79V297.79Z" fill="#FFC550"/>
<path d="M810.142 339.7C805.672 341.95 788.632 340.4 788.632 340.4C788.632 340.4 797.512 325.77 801.982 323.57C804.128 322.488 806.615 322.302 808.898 323.054C811.18 323.806 813.07 325.434 814.152 327.58C815.234 329.726 815.42 332.213 814.668 334.495C813.916 336.778 812.288 338.668 810.142 339.75V339.7Z" fill="#FFC550"/>
<path d="M813.772 381.71C809.772 384.71 792.692 386.03 792.692 386.03C792.692 386.03 798.972 370.11 802.992 367.14C804.924 365.71 807.345 365.107 809.722 365.462C812.099 365.818 814.237 367.103 815.667 369.035C817.097 370.967 817.7 373.388 817.345 375.765C816.989 378.142 815.704 380.28 813.772 381.71V381.71Z" fill="#FFC550"/>
<path d="M63.8821 338.69C63.8821 338.69 89.572 251.57 59.082 187.37C46.282 160.44 42.0821 130.22 47.9521 101C50.7819 87.1414 54.8757 73.5714 60.1821 60.46" stroke="#535461" stroke-width="2" stroke-miterlimit="10"/>
<path d="M41.2121 19.9099C41.2121 30.5899 60.5521 61.5699 60.5521 61.5699C60.5521 61.5699 79.8821 30.5699 79.8821 19.9099C79.8821 14.7807 77.8445 9.86145 74.2175 6.2345C70.5906 2.60754 65.6714 0.569946 60.5421 0.569946C55.4128 0.569946 50.4936 2.60754 46.8666 6.2345C43.2397 9.86145 41.2021 14.7807 41.2021 19.9099H41.2121Z" fill="#FFC550"/>
<path d="M9.24208 79.0799C15.0521 88.0799 48.1221 103.54 48.1221 103.54C48.1221 103.54 47.5221 67.0199 41.7121 58.0599C38.8699 53.8858 34.5078 50.989 29.558 49.9885C24.6083 48.9879 19.4635 49.963 15.2232 52.7055C10.9829 55.4479 7.98343 59.7401 6.86579 64.6647C5.74814 69.5893 6.601 74.7558 9.24208 79.0599V79.0799Z" fill="#FFC550"/>
<path d="M10.6321 180.2C20.1721 185.01 56.5421 181.69 56.5421 181.69C56.5421 181.69 37.5421 150.47 28.0521 145.69C25.7842 144.546 23.3132 143.86 20.7801 143.671C18.2471 143.483 15.7017 143.795 13.2893 144.589C10.8768 145.384 8.64451 146.647 6.71987 148.304C4.79523 149.962 3.21592 151.982 2.0721 154.25C0.92829 156.518 0.24238 158.989 0.0535334 161.522C-0.135314 164.055 0.176602 166.6 0.971472 169.013C2.57678 173.885 6.05181 177.92 10.6321 180.23V180.2Z" fill="#FFC550"/>
<path d="M28.8821 256.47C37.4721 262.82 73.8821 265.69 73.8821 265.69C73.8821 265.69 60.4821 231.69 51.8821 225.37C47.758 222.32 42.5912 221.033 37.5183 221.793C32.4454 222.552 27.8821 225.296 24.8321 229.42C21.7821 233.544 20.4953 238.711 21.2548 243.784C22.0144 248.857 24.758 253.42 28.8821 256.47V256.47Z" fill="#FFC550"/>
<path d="M88.7321 105.57C81.0721 113.01 45.3721 120.72 45.3721 120.72C45.3721 120.72 54.1121 85.2599 61.7721 77.8199C65.4519 74.2395 70.4034 72.2676 75.5372 72.3379C80.671 72.4082 85.5666 74.5151 89.1471 78.1949C92.7275 81.8748 94.6994 86.8263 94.6291 91.9601C94.5588 97.0939 92.4519 101.99 88.7721 105.57H88.7321Z" fill="#FFC550"/>
<path d="M108.982 195.08C99.4421 199.89 63.0721 196.57 63.0721 196.57C63.0721 196.57 82.0721 165.35 91.5621 160.57C93.83 159.426 96.301 158.74 98.834 158.551C101.367 158.362 103.912 158.674 106.325 159.469C108.737 160.264 110.97 161.526 112.894 163.184C114.819 164.842 116.398 166.862 117.542 169.13C118.686 171.398 119.372 173.869 119.561 176.402C119.749 178.935 119.438 181.48 118.643 183.893C117.848 186.305 116.586 188.537 114.928 190.462C113.27 192.387 111.25 193.966 108.982 195.11V195.08Z" fill="#FFC550"/>
<path d="M116.732 284.74C108.142 291.09 71.7321 293.96 71.7321 293.96C71.7321 293.96 85.1321 259.96 93.7321 253.64C97.8562 250.59 103.023 249.303 108.096 250.063C113.169 250.822 117.732 253.566 120.782 257.69C123.832 261.814 125.119 266.981 124.359 272.054C123.6 277.127 120.856 281.69 116.732 284.74V284.74Z" fill="#FFC550"/>
<path d="M379.142 123.79L323.412 116.57C321.152 116.28 319.412 115.42 319.472 114.67C319.572 113.92 321.472 113.57 323.782 113.9L379.392 121.95C380.922 122.17 382.082 122.75 382.012 123.26C381.942 123.74 380.662 123.99 379.142 123.79Z" fill="#5263F3"/>
<path d="M379.492 124.74L323.592 118.96C321.322 118.73 319.392 119.15 319.322 119.9C319.252 120.65 321.062 121.44 323.322 121.64L379.322 126.64C380.862 126.78 382.122 126.48 382.172 125.97C382.212 125.43 381.022 124.9 379.492 124.74Z" fill="#5263F3"/>
<path d="M463.352 166.79L519.072 159.57C521.332 159.28 523.072 158.42 523.012 157.67C522.912 156.92 521.012 156.57 518.702 156.9L463.092 164.95C461.562 165.17 460.402 165.75 460.472 166.26C460.542 166.74 461.822 166.99 463.352 166.79Z" fill="#5263F3"/>
<path d="M462.992 167.74L518.892 161.96C521.162 161.73 523.092 162.15 523.162 162.9C523.232 163.65 521.422 164.44 519.162 164.64L463.162 169.64C461.622 169.78 460.362 169.48 460.312 168.97C460.272 168.43 461.462 167.9 462.992 167.74Z" fill="#5263F3"/>
<path d="M279.022 226.64H265.432V421.5H279.022V226.64Z" fill="#40414D"/>
<path d="M575.842 226.64H562.252V421.5H575.842V226.64Z" fill="#40414D"/>
<path d="M260.242 210.78H574.242C580.077 210.78 585.673 213.098 589.798 217.224C593.924 221.349 596.242 226.945 596.242 232.78V235.7H238.242V232.78C238.242 226.945 240.56 221.349 244.686 217.224C248.812 213.098 254.407 210.78 260.242 210.78V210.78Z" fill="#DFE6F5"/>
<path opacity="0.1" d="M259.242 210.78H573.242C579.077 210.78 584.673 213.098 588.798 217.224C592.924 221.349 595.242 226.945 595.242 232.78V235.7H237.242V232.78C237.242 226.945 239.56 221.349 243.686 217.224C247.812 213.098 253.407 210.78 259.242 210.78V210.78Z" fill="#171D26"/>
<path d="M260.242 206.24H574.242C580.077 206.24 585.673 208.558 589.798 212.684C593.924 216.809 596.242 222.405 596.242 228.24V231.16H238.242V228.24C238.242 222.405 240.56 216.809 244.686 212.684C248.812 208.558 254.407 206.24 260.242 206.24Z" fill="#FAFAEE"/>
<path d="M417.242 190.38C432.259 190.38 444.432 178.207 444.432 163.19C444.432 148.173 432.259 136 417.242 136C402.226 136 390.052 148.173 390.052 163.19C390.052 178.207 402.226 190.38 417.242 190.38Z" fill="#FFC550" stroke="#FFC550" stroke-miterlimit="10"/>
<path d="M417.242 184.74C429.144 184.74 438.792 175.092 438.792 163.19C438.792 151.288 429.144 141.64 417.242 141.64C405.34 141.64 395.692 151.288 395.692 163.19C395.692 175.092 405.34 184.74 417.242 184.74Z" fill="#FFC550" stroke="#FFC550" stroke-miterlimit="10"/>
<path d="M417.242 179.61C426.311 179.61 433.662 172.259 433.662 163.19C433.662 154.122 426.311 146.77 417.242 146.77C408.174 146.77 400.822 154.122 400.822 163.19C400.822 172.259 408.174 179.61 417.242 179.61Z" fill="#FFC550" stroke="#FFC550" stroke-miterlimit="10"/>
<path d="M417.242 172.42C422.34 172.42 426.472 168.288 426.472 163.19C426.472 158.092 422.34 153.96 417.242 153.96C412.145 153.96 408.012 158.092 408.012 163.19C408.012 168.288 412.145 172.42 417.242 172.42Z" fill="#FFC550" stroke="#FFC550" stroke-miterlimit="10"/>
<path d="M401.382 205.11C416.399 205.11 428.572 192.937 428.572 177.92C428.572 162.903 416.399 150.73 401.382 150.73C386.365 150.73 374.192 162.903 374.192 177.92C374.192 192.937 386.365 205.11 401.382 205.11Z" fill="#FFC550" stroke="#FFC550" stroke-miterlimit="10"/>
<path d="M401.382 199.47C413.284 199.47 422.932 189.822 422.932 177.92C422.932 166.018 413.284 156.37 401.382 156.37C389.48 156.37 379.832 166.018 379.832 177.92C379.832 189.822 389.48 199.47 401.382 199.47Z" fill="#FFC550" stroke="#FFC550" stroke-miterlimit="10"/>
<path d="M401.382 194.34C410.451 194.34 417.802 186.989 417.802 177.92C417.802 168.851 410.451 161.5 401.382 161.5C392.314 161.5 384.962 168.851 384.962 177.92C384.962 186.989 392.314 194.34 401.382 194.34Z" fill="#FFC550" stroke="#FFC550" stroke-miterlimit="10"/>
<path d="M401.382 187.15C406.48 187.15 410.612 183.018 410.612 177.92C410.612 172.822 406.48 168.69 401.382 168.69C396.285 168.69 392.152 172.822 392.152 177.92C392.152 183.018 396.285 187.15 401.382 187.15Z" fill="#FFC550" stroke="#FFC550" stroke-miterlimit="10"/>
<path d="M433.102 205.11C448.119 205.11 460.292 192.937 460.292 177.92C460.292 162.903 448.119 150.73 433.102 150.73C418.085 150.73 405.912 162.903 405.912 177.92C405.912 192.937 418.085 205.11 433.102 205.11Z" fill="#FFC550" stroke="#FFC550" stroke-miterlimit="10"/>
<path d="M433.102 199.47C445.004 199.47 454.652 189.822 454.652 177.92C454.652 166.018 445.004 156.37 433.102 156.37C421.2 156.37 411.552 166.018 411.552 177.92C411.552 189.822 421.2 199.47 433.102 199.47Z" fill="#FFC550" stroke="#FFC550" stroke-miterlimit="10"/>
<path d="M433.102 194.34C442.171 194.34 449.522 186.989 449.522 177.92C449.522 168.851 442.171 161.5 433.102 161.5C424.033 161.5 416.682 168.851 416.682 177.92C416.682 186.989 424.033 194.34 433.102 194.34Z" fill="#FFC550" stroke="#FFC550" stroke-miterlimit="10"/>
<path d="M433.102 187.15C438.2 187.15 442.332 183.018 442.332 177.92C442.332 172.822 438.2 168.69 433.102 168.69C428.004 168.69 423.872 172.822 423.872 177.92C423.872 183.018 428.004 187.15 433.102 187.15Z" fill="#FFC550" stroke="#FFC550" stroke-miterlimit="10"/>
<path d="M360.592 170H473.882V175.32C473.882 180.573 472.847 185.774 470.837 190.627C468.827 195.48 465.881 199.89 462.166 203.604C458.452 207.319 454.042 210.265 449.189 212.275C444.336 214.285 439.135 215.32 433.882 215.32H400.592C395.339 215.32 390.138 214.285 385.285 212.275C380.432 210.265 376.022 207.319 372.308 203.604C368.593 199.89 365.647 195.48 363.637 190.627C361.627 185.774 360.592 180.573 360.592 175.32V170Z" fill="#171D26"/>
<path opacity="0.1" d="M463.662 169.99C463.367 181.807 458.466 193.04 450.005 201.294C441.544 209.548 430.192 214.168 418.372 214.17H395.882C399.163 214.919 402.517 215.302 405.882 215.31H428.542C434.495 215.313 440.391 214.142 445.891 211.866C451.392 209.59 456.391 206.252 460.601 202.043C464.812 197.835 468.152 192.838 470.43 187.338C472.709 181.838 473.882 175.943 473.882 169.99H463.662Z" fill="#171D26"/>
<path d="M569.052 388.64V375.05H274.492V388.64H569.052Z" fill="#40414D"/>
<path d="M164.052 327.59H152.162V435.77H164.052V327.59Z" fill="#40414D"/>
<path d="M257.962 327.59H246.072V435.77H257.962V327.59Z" fill="#40414D"/>
<path d="M267.482 309.76C267.482 316.98 243.002 322.84 212.802 322.84C182.602 322.84 159.312 316.99 159.312 309.76C159.312 302.53 182.602 296.68 212.802 296.68C243.002 296.68 267.482 302.57 267.482 309.76Z" fill="#40414D"/>
<path d="M142.652 309.75H267.472V320.65C267.472 323.435 266.366 326.105 264.397 328.075C262.428 330.044 259.757 331.15 256.972 331.15H160.652C155.878 331.15 151.3 329.254 147.924 325.878C144.549 322.502 142.652 317.924 142.652 313.15V309.75Z" fill="#40414D"/>
<path d="M121.455 184.67L124.031 184.089C125.841 183.68 127.741 184.008 129.31 184.999C130.88 185.991 131.991 187.565 132.4 189.376L163.574 327.481L159.672 328.362C156.397 329.101 152.962 328.509 150.124 326.716C147.285 324.923 145.275 322.076 144.535 318.8L116.149 193.044C115.946 192.146 115.923 191.216 116.08 190.309C116.237 189.402 116.571 188.534 117.064 187.756C117.557 186.978 118.199 186.305 118.952 185.776C119.706 185.246 120.556 184.871 121.455 184.67Z" fill="#40414D"/>
<path d="M672.422 437.69H684.312V329.51H672.422V437.69Z" fill="#40414D"/>
<path d="M578.512 437.69H590.402V329.51H578.512V437.69Z" fill="#40414D"/>
<path d="M569.012 311.68C569.012 318.9 593.492 324.76 623.692 324.76C653.892 324.76 677.182 318.91 677.182 311.68C677.182 304.45 653.882 298.57 623.692 298.57C593.502 298.57 569.012 304.46 569.012 311.68Z" fill="#40414D"/>
<path d="M675.822 333.08H579.502C576.717 333.08 574.047 331.974 572.078 330.005C570.108 328.035 569.002 325.365 569.002 322.58V311.68H693.822V315.08C693.822 319.854 691.926 324.432 688.55 327.808C685.174 331.184 680.596 333.08 675.822 333.08Z" fill="#40414D"/>
<path d="M676.82 330.281L672.918 329.401L704.096 191.276C704.505 189.465 705.616 187.89 707.186 186.899C708.756 185.908 710.655 185.58 712.466 185.989L715.041 186.57C716.852 186.979 718.426 188.09 719.418 189.66C720.409 191.23 720.737 193.129 720.328 194.94L691.937 320.715C691.198 323.987 689.192 326.832 686.357 328.626C683.523 330.419 680.093 331.015 676.82 330.281V330.281Z" fill="#40414D"/>
<path d="M681.052 269.57L684.562 268.46C684.562 268.46 678.562 228.38 678.622 192.46C678.622 191.46 678.622 190.39 678.622 189.36C678.692 187.12 678.772 184.9 678.882 182.73C679.022 179.95 679.052 177.3 679.032 174.73C679.362 140.14 665.732 125.53 665.732 125.53C665.732 125.53 649.732 102.71 640.142 98.27C639.312 95.67 638.362 92.33 637.522 88.45C637.832 88.24 638.132 88.03 638.422 87.81C642.383 84.8721 646.172 81.7103 649.772 78.34C654.692 73.73 659.412 68.11 659.152 61.77C659.179 61.1527 659.159 60.5343 659.092 59.92C658.182 52.27 650.232 46.51 647.022 39.26C644.322 33.17 645.132 26.39 642.772 20.21C640.412 14.03 632.172 8.28 625.952 11.53C623.662 12.73 622.282 14.85 620.372 16.46C615.632 20.46 607.992 20.83 601.512 19.01C595.032 17.19 593.112 9.77 584.052 9.75C584.857 10.0197 585.625 10.3857 586.342 10.84C585.585 10.7125 584.819 10.6456 584.052 10.64C585.895 11.2231 587.529 12.3277 588.757 13.8203C589.986 15.3129 590.755 17.1294 590.972 19.05C590.958 19.2913 590.931 19.5316 590.892 19.77C587.272 21.72 582.512 20.61 578.172 20.54C573.832 20.47 568.892 22.66 569.322 26.21C569.249 26.6134 569.249 27.0266 569.322 27.43C569.892 30.12 573.492 32.15 573.932 34.64C573.932 34.71 573.932 34.77 573.932 34.84C565.901 38.8533 557.212 41.3871 548.282 42.32C547.992 42.32 548.122 42.67 548.542 43.18H548.282C546.652 43.35 558.052 52.36 559.352 52.95C564.112 55.11 569.802 56.7 574.842 58.36L575.282 58.5C573.584 62.4449 572.709 66.6951 572.712 70.99C572.712 86.39 583.782 99.33 598.772 102.99C601.572 106.26 604.512 109.85 607.192 113.42H607.002C607.002 113.42 589.772 136.34 590.322 170.57C590.273 174.86 590.5 179.149 591.002 183.41C579.922 182.78 556.112 179.86 538.002 166.6C513.572 148.73 486.322 154.09 492.002 164.81C497.682 175.53 526.772 184.46 531.462 185.36C531.902 185.44 532.922 185.68 534.382 186.04C528.602 187.13 524.642 189.04 524.882 191.61C525.352 196.52 550.252 212.16 565.282 213.05C575.212 213.64 587.162 216.7 596.592 219.39C597.502 239.94 592.532 246.1 592.532 246.1C592.532 246.1 594.012 247.01 596.462 248.3L595.412 251.3C589.312 254.82 581.792 258.49 574.952 259.97C566.236 261.761 557.763 264.581 549.712 268.37L515.882 284.72C512.861 286.122 510.247 288.27 508.287 290.963C506.328 293.656 505.087 296.804 504.682 300.11C503.942 307.04 506.032 315.7 517.352 322.57C518.052 328.2 521.492 334.77 530.522 340.79C548.022 352.43 594.012 387.3 600.272 392.06C600.392 400.57 599.272 417.64 588.772 420.3C575.612 423.64 586.202 436.3 596.842 435.8C599.367 436.755 602.115 436.957 604.752 436.38C616.032 433.7 657.372 419.38 660.192 397.96C660.309 397.031 660.363 396.096 660.352 395.16C660.516 391.508 659.605 387.889 657.732 384.75C658.173 385.718 658.531 386.721 658.802 387.75C655.382 379.95 647.052 375.05 640.572 372.29C640.572 372.22 640.572 372.14 640.572 372.07C639.572 371.68 638.572 371.36 637.752 371.07C637.769 370.49 637.725 369.911 637.622 369.34L572.792 324.67C572.792 324.67 600.982 301.44 630.112 305.02C659.242 308.6 663.882 303.31 663.882 303.31C663.882 303.31 678.822 289.1 680.322 272.74L681.262 272.49C681.262 272.49 681.192 271.46 681.052 269.57Z" fill="url(#paint0_linear)"/>
<path d="M601.882 385.92C601.882 385.92 604.532 415.09 591.272 418.63C578.012 422.17 590.392 436.31 600.992 433.63C611.592 430.95 650.502 416.83 653.152 395.63C655.802 374.43 626.632 367.34 626.632 367.34L601.882 385.92Z" fill="#916168"/>
<path opacity="0.05" d="M601.882 385.92C601.882 385.92 604.532 415.09 591.272 418.63C578.012 422.17 590.392 436.31 600.992 433.63C611.592 430.95 650.502 416.83 653.152 395.63C655.802 374.43 626.632 367.34 626.632 367.34L601.882 385.92Z" fill="#171D26"/>
<path d="M607.212 386.8C607.212 386.8 609.862 415.97 596.602 419.51C583.342 423.05 595.722 437.19 606.322 434.51C616.922 431.83 655.832 417.71 658.482 396.51C661.132 375.31 631.962 368.22 631.962 368.22L607.212 386.8Z" fill="#916168"/>
<path opacity="0.1" d="M634.612 369.12L609.882 387.69C609.882 387.69 609.992 388.95 610.062 390.96C619.402 388.4 639.752 381.6 640.062 370.96C638.284 370.238 636.464 369.624 634.612 369.12V369.12Z" fill="#171D26"/>
<path d="M619.142 114.95H608.532V122.91H619.142V114.95Z" fill="#F8BDC5"/>
<path d="M608.982 243.57C608.982 243.57 592.132 256.81 578.292 259.95C570.063 261.731 562.086 264.522 554.542 268.26L522.712 284.44C519.821 285.894 517.342 288.05 515.5 290.711C513.659 293.372 512.515 296.452 512.172 299.67C511.262 308.67 514.882 320.51 536.482 327.55L604.552 384.13L625.772 366.45L553.282 310.77L608.982 276.29V243.57Z" fill="#758AC8"/>
<path opacity="0.1" d="M608.982 243.57C608.982 243.57 592.132 256.81 578.292 259.95C570.063 261.731 562.086 264.522 554.542 268.26L522.712 284.44C519.821 285.894 517.342 288.05 515.5 290.711C513.659 293.372 512.515 296.452 512.172 299.67C511.262 308.67 514.882 320.51 536.482 327.55L604.552 384.13L625.772 366.45L553.282 310.77L608.982 276.29V243.57Z" fill="#171D26"/>
<path d="M599.252 184.35C599.252 184.35 566.542 185.23 543.552 167.55C520.562 149.87 494.932 155.17 500.232 165.78C505.532 176.39 532.942 185.23 537.362 186.11C541.782 186.99 605.432 204.68 605.432 204.68L599.252 184.35Z" fill="#916168"/>
<path opacity="0.05" d="M599.252 184.35C599.252 184.35 566.542 185.23 543.552 167.55C520.562 149.87 494.932 155.17 500.232 165.78C505.532 176.39 532.942 185.23 537.362 186.11C541.782 186.99 605.432 204.68 605.432 204.68L599.252 184.35Z" fill="#171D26"/>
<path d="M602.792 235.63L592.182 267.46C592.182 267.46 532.512 304.15 527.642 309.01C523.862 312.79 518.802 327.58 536.482 339.95C554.162 352.32 602.782 391.23 602.782 391.23C602.782 391.23 639.912 383.23 637.262 368.23L576.262 324.03C576.262 324.03 602.782 301.03 630.192 304.58C657.602 308.13 662.022 302.81 662.022 302.81C662.022 302.81 683.242 281.57 676.162 261.27C669.082 240.97 602.792 235.63 602.792 235.63Z" fill="#758AC8"/>
<path d="M592.572 86.9466C592.572 86.9466 616.141 124.604 612.623 133.836C609.104 143.068 641.265 110.39 641.265 110.39C641.265 110.39 636.958 89.8045 642.619 69.2737L592.572 86.9466Z" fill="#916168"/>
<path opacity="0.1" d="M615.762 121.57C617.813 119.405 619.972 117.345 622.232 115.4C626.755 111.69 630.905 107.547 634.622 103.03C640.812 95.0299 663.792 129.55 663.792 129.55C663.792 129.55 677.932 145.46 676.172 183.48C674.412 221.5 678.382 272.33 678.382 272.33L673.032 273.82C668.526 275.324 663.731 275.759 659.028 275.09C654.325 274.422 649.841 272.669 645.932 269.97C638.872 265.09 629.932 259.97 623.132 259.51C609.872 258.63 597.932 251.11 597.932 251.11C597.932 251.11 603.682 237.41 594.842 193.2C586.002 148.99 608.532 117.57 608.532 117.57C608.532 117.57 610.312 127.19 615.762 121.57Z" fill="#171D26"/>
<path d="M681.472 268.34L676.172 270.11L673.022 271.16C668.516 272.665 663.722 273.1 659.018 272.432C654.315 271.763 649.831 270.01 645.922 267.31C638.872 262.44 629.922 257.31 623.122 256.85C609.882 255.96 594.882 246.24 594.882 246.24C594.882 246.24 603.722 234.75 594.882 190.54C586.042 146.33 608.582 114.95 608.582 114.95C608.582 114.95 610.362 124.52 615.812 118.89C617.858 116.727 620.015 114.671 622.272 112.73C626.796 109.02 630.945 104.877 634.662 100.36C640.852 92.36 663.832 126.88 663.832 126.88C663.832 126.88 677.972 142.79 676.212 180.81C676.022 184.81 675.942 188.93 675.932 193.1C675.802 228.68 681.472 268.34 681.472 268.34Z" fill="#5263F3"/>
<path opacity="0.1" d="M631.082 181.7L631.962 201.15C631.962 201.15 585.102 203.8 575.382 194.08C565.662 184.36 601.882 222.67 609.882 225.02C617.392 227.23 636.782 229.18 646.952 229.38C649.857 229.473 652.727 228.721 655.213 227.214C657.698 225.706 659.692 223.509 660.952 220.89C662.137 218.312 662.521 215.438 662.052 212.64C660.282 201.15 662.052 176.39 662.052 176.39L631.082 181.7Z" fill="#171D26"/>
<path d="M631.082 179.93L631.962 199.38C631.962 199.38 585.102 202.03 575.382 192.31C565.662 182.59 530.492 184.74 531.182 192.31C531.622 197.17 555.052 212.64 569.182 213.53C583.312 214.42 601.882 220.9 609.882 223.25C617.392 225.46 636.782 227.41 646.952 227.61C649.857 227.703 652.727 226.951 655.213 225.444C657.698 223.936 659.692 221.739 660.952 219.12C662.137 216.542 662.521 213.668 662.052 210.87C660.282 199.38 662.052 174.62 662.052 174.62L631.082 179.93Z" fill="#916168"/>
<path opacity="0.1" d="M641.692 123.35C641.692 123.35 621.362 126 624.012 156.06C626.662 186.12 630.202 188.77 630.202 188.77C630.202 188.77 660.262 186.12 663.792 185.23C667.322 184.34 665.562 151.64 665.562 151.64C665.562 151.64 664.672 122.47 641.692 123.35Z" fill="#171D26"/>
<path d="M641.692 122.47C641.692 122.47 621.362 125.12 624.012 155.18C626.662 185.24 630.202 187.89 630.202 187.89C630.202 187.89 660.262 185.24 663.792 184.35C667.322 183.46 665.562 150.76 665.562 150.76C665.562 150.76 664.672 121.57 641.692 122.47Z" fill="#5263F3"/>
<path opacity="0.1" d="M634.172 84.0099C632.782 77.0099 635.632 74.8499 636.382 65.8899L590.382 92.4099C590.382 92.4099 595.652 98.1499 601.642 105.52C604.319 106.197 607.071 106.533 609.832 106.52C621.882 106.57 628.472 93.6299 634.172 84.0099Z" fill="#171D26"/>
<path d="M608.972 105.67C627.037 105.67 641.682 91.0252 641.682 72.96C641.682 54.8948 627.037 40.25 608.972 40.25C590.907 40.25 576.262 54.8948 576.262 72.96C576.262 91.0252 590.907 105.67 608.972 105.67Z" fill="#916168"/>
<path opacity="0.1" d="M617.222 63.0299C612.222 66.2099 612.152 73.3999 615.372 78.3799C618.592 83.3599 624.142 86.6499 629.482 89.7499C631.032 90.6499 632.742 91.5799 634.482 91.3799C635.82 91.1192 637.059 90.4927 638.062 89.5699C641.799 86.6542 645.365 83.5257 648.742 80.2C653.602 75.42 658.272 69.53 657.512 62.86C656.652 55.29 649.172 49.59 646.152 42.42C643.612 36.42 644.372 29.6899 642.152 23.5599C639.932 17.4299 632.152 11.7599 626.332 14.9699C624.182 16.1499 622.882 18.2599 621.082 19.8499C616.622 23.7899 609.432 24.1799 603.332 22.3799C597.232 20.5799 595.422 13.23 586.912 13.21C591.142 14.7 594.002 19.1099 593.352 23.1299C589.942 25.0599 585.462 23.96 581.352 23.89C577.242 23.82 572.352 26.1199 573.062 29.8199C573.682 32.8199 578.012 35.05 577.372 38.05C569.86 42.0073 561.671 44.5175 553.232 45.45C551.702 45.62 562.422 54.5299 563.642 55.1199C568.112 57.2599 573.482 58.8299 578.212 60.4699C591.062 64.8999 604.222 66.4799 617.222 63.0299Z" fill="#171D26"/>
<path d="M617.222 62.14C612.222 65.32 612.152 72.51 615.372 77.49C618.592 82.47 624.142 85.76 629.482 88.86C631.032 89.76 632.742 90.69 634.482 90.49C635.82 90.2292 637.059 89.6027 638.062 88.6799C641.799 85.7642 645.365 82.6357 648.742 79.3099C653.602 74.5299 658.272 68.6399 657.512 61.9699C656.652 54.3999 649.172 48.6999 646.152 41.5299C643.612 35.5299 644.372 28.8 642.152 22.67C639.932 16.54 632.152 10.87 626.332 14.08C624.182 15.26 622.882 17.37 621.082 18.96C616.622 22.9 609.432 23.29 603.332 21.49C597.232 19.69 595.422 12.3399 586.912 12.3199C591.142 13.8099 594.002 18.22 593.352 22.24C589.942 24.17 585.462 23.0699 581.352 22.9999C577.242 22.9299 572.352 25.2299 573.062 28.9299C573.682 31.9299 578.012 34.1599 577.372 37.1599C569.86 41.1172 561.671 43.6275 553.232 44.5599C551.702 44.7299 562.422 53.6399 563.642 54.2299C568.112 56.37 573.482 57.94 578.212 59.58C591.062 64.02 604.222 65.57 617.222 62.14Z" fill="#3C354C"/>
<path opacity="0.1" d="M656.172 383.46C657.592 386.734 658.086 390.334 657.602 393.87C654.952 415.09 616.052 429.23 605.442 431.87C599.852 433.27 593.762 430 591.212 426.07C592.852 430.69 599.912 435.24 606.332 433.64C616.942 430.99 655.842 416.84 658.492 395.64C659.071 391.435 658.256 387.157 656.172 383.46Z" fill="white"/>
<path d="M375.222 407.57C374.432 405.79 370.332 402.32 350.562 401.57C337.022 401.06 332.412 393.91 331.162 386.93C335.612 386.35 339.092 385.55 340.232 384.44C340.232 384.44 340.172 384.12 340.072 383.55L340.232 383.43C339.367 378.395 338.916 373.298 338.882 368.19C338.856 363.819 339.319 359.458 340.262 355.19C340.813 352.368 341.044 349.493 340.952 346.62C341.062 329.62 335.092 299.74 335.092 299.74L334.272 274.91C334.19 271.812 333.274 268.793 331.622 266.171C329.97 263.549 327.641 261.421 324.882 260.01C322.918 258.994 320.743 258.452 318.532 258.43C318.532 258.43 287.192 253.49 258.982 250.8C256.982 249.19 249.932 244.85 233.772 247.34L224.472 220.12C224.397 219.79 224.343 219.456 224.312 219.12C224.642 215.66 226.952 210.45 237.722 210.12L239.972 212.12C239.972 212.12 240.372 211.33 241.042 210.12C254.402 209.97 327.182 209.23 330.932 210.12C335.062 211.12 371.242 203.06 372.282 202.06C386.342 188.35 330.932 195 330.932 195C325.482 195.89 307.872 194.83 289.832 193.36C298.762 179.97 307.162 134.52 307.162 134.52C307.162 134.52 339.162 118.39 329.902 109.32C320.642 100.25 292.692 129.48 292.692 129.48C292.692 129.48 281.322 162.75 276.152 172.83C274.152 176.83 271.562 177.65 269.252 177.19C270.302 176.35 270.982 175.85 270.982 175.85C270.982 175.85 248.242 157.7 246.172 150.65C245.787 149.495 245.277 148.385 244.652 147.34C243.562 140.95 241.652 134.66 236.992 130.47C236.209 129.63 235.345 128.869 234.412 128.2C233.152 127.3 231.722 126.52 230.532 125.54C231.202 122.46 231.982 119.26 232.792 116.16C249.672 114.16 262.792 100.16 262.792 83.1599C262.789 80.5963 262.484 78.0419 261.882 75.55C264.405 75.7161 266.928 75.2269 269.206 74.13C271.483 73.0331 273.439 71.3658 274.882 69.29C278.292 64.21 278.182 57.2899 275.322 51.9299C274.14 49.7538 272.59 47.7983 270.742 46.1499C267.795 43.1821 264.202 40.9368 260.242 39.5899C256.812 38.3999 253.022 37.69 250.302 35.36C249.087 33.7703 247.981 32.0998 246.992 30.36C245.851 28.6517 244.508 27.0871 242.992 25.7C237.992 20.55 230.932 17.38 223.742 15.98C214.982 14.27 205.932 14.88 197.022 15.49C193.692 15.72 189.782 16.31 188.282 19.21C187.152 21.39 187.892 23.9999 187.742 26.4299C187.272 34.1599 178.432 38.43 170.742 40.3C163.052 42.17 153.882 43.7899 150.172 50.57C146.802 56.6899 149.172 64.11 150.252 70.98C152.051 83.0426 149.372 95.3466 142.722 105.57C139.342 110.74 134.982 115.34 132.312 120.89C129.354 127.077 128.667 134.107 130.372 140.75C130.872 142.69 131.592 144.67 131.232 146.65C130.823 148.283 130.019 149.79 128.892 151.04C124.294 156.718 118.571 161.384 112.083 164.745C105.595 168.106 98.4829 170.089 91.1921 170.57C91.8044 172.6 93.0008 174.405 94.6321 175.76C96.7045 177.809 99.1214 179.478 101.772 180.69C108.755 184.192 116.098 186.925 123.672 188.84C128.772 190.13 134.102 191.05 139.292 190.17C144.482 189.29 149.542 186.32 151.672 181.62C152.912 178.9 153.092 175.82 154.192 173.05C156.382 167.51 161.812 163.92 165.482 159.17C164.246 171.41 163.662 183.708 163.732 196.01C163.732 199.86 163.732 203.33 163.732 206.55C163.732 220.44 162.732 230.02 154.122 247.37C153.096 249.194 152.646 251.286 152.832 253.37C152.645 254.496 152.754 255.652 153.148 256.723C153.543 257.794 154.209 258.744 155.082 259.48C154.482 262.941 154.191 266.448 154.212 269.96C154.092 282.6 158.362 299.57 181.002 303.87L221.312 301.87C221.312 301.87 278.162 290.78 293.662 298.87C294.941 299.142 296.089 299.844 296.913 300.86C297.737 301.875 298.189 303.142 298.192 304.45C298.144 305.291 298.013 306.125 297.802 306.94C297.37 309.56 297.206 312.217 297.312 314.87C297.242 331.87 300.902 370.45 300.902 370.45V386.81C298.322 390.69 295.142 396.43 295.552 400.66C295.552 400.75 295.552 400.85 295.552 400.94C295.552 401.03 295.552 401.19 295.612 401.31C295.672 401.43 295.612 401.53 295.682 401.64C295.752 401.75 295.742 401.85 295.772 401.96C295.802 402.07 295.852 402.2 295.902 402.31C295.952 402.42 295.972 402.49 296.012 402.58C296.052 402.67 296.142 402.84 296.212 402.96L296.332 403.17C296.452 403.362 296.586 403.546 296.732 403.72C301.902 409.72 327.732 421.33 336.012 420.86C344.802 420.36 374.252 421.86 375.292 408.76C375.424 408.369 375.399 407.943 375.222 407.57V407.57Z" fill="url(#paint1_linear)"/>
<path d="M301.742 382.25C301.742 382.25 289.742 397.25 294.742 403.25C299.742 409.25 324.742 420.72 332.742 420.25C341.242 419.75 369.742 421.25 370.742 408.25C370.742 408.25 372.742 402.25 346.742 401.25C320.742 400.25 328.742 373.25 328.742 373.25L301.742 382.25Z" fill="#171D26"/>
<path opacity="0.1" d="M158.742 256.25C158.742 256.25 146.742 297.25 182.742 304.25L221.742 302.25C221.742 302.25 276.742 291.25 291.742 299.25C291.742 299.25 297.742 300.25 295.742 308.25C293.742 316.25 298.742 370.25 298.742 370.25V388.25C298.742 388.25 332.742 388.25 336.742 384.25C336.742 384.25 333.742 368.25 336.742 355.25C339.742 342.25 331.742 301.25 331.742 301.25L330.952 276.57C330.893 273.52 330.023 270.542 328.431 267.94C326.838 265.339 324.581 263.209 321.892 261.77C319.999 260.767 317.894 260.232 315.752 260.21C315.752 260.21 247.752 249.21 223.752 251.21C199.752 253.21 158.742 256.25 158.742 256.25Z" fill="#171D26"/>
<path d="M158.742 255.25C158.742 255.25 146.742 296.25 182.742 303.25L221.742 301.25C221.742 301.25 276.742 290.25 291.742 298.25C291.742 298.25 297.742 299.25 295.742 307.25C293.742 315.25 298.742 369.25 298.742 369.25V387.25C298.742 387.25 332.742 387.25 336.742 383.25C336.742 383.25 333.742 367.25 336.742 354.25C339.742 341.25 331.742 300.25 331.742 300.25L330.952 275.57C330.893 272.52 330.023 269.542 328.431 266.94C326.838 264.339 324.581 262.209 321.892 260.77C319.999 259.767 317.894 259.232 315.752 259.21C315.752 259.21 247.752 248.21 223.752 250.21C199.752 252.21 158.742 255.25 158.742 255.25Z" fill="#8B9CD1"/>
<path d="M261.742 174.25C261.742 174.25 269.742 184.25 274.742 174.25C279.742 164.25 290.742 131.25 290.742 131.25C290.742 131.25 317.742 102.25 326.742 111.25C335.742 120.25 304.742 136.25 304.742 136.25C304.742 136.25 293.742 197.25 283.742 198.25C273.742 199.25 258.742 198.25 258.742 198.25L253.742 187.25L261.742 174.25Z" fill="#F8BDC5"/>
<path opacity="0.05" d="M261.742 174.25C261.742 174.25 269.742 184.25 274.742 174.25C279.742 164.25 290.742 131.25 290.742 131.25C290.742 131.25 317.742 102.25 326.742 111.25C335.742 120.25 304.742 136.25 304.742 136.25C304.742 136.25 293.742 197.25 283.742 198.25C273.742 199.25 258.742 198.25 258.742 198.25L253.742 187.25L261.742 174.25Z" fill="#171D26"/>
<path d="M225.742 124.25C225.742 124.25 243.742 145.25 245.742 152.25C247.742 159.25 269.742 177.25 269.742 177.25C269.742 177.25 253.742 189.25 256.742 195.25C259.742 201.25 235.742 175.25 235.742 175.25L207.742 134.25L225.742 124.25Z" fill="#171D26"/>
<path opacity="0.1" d="M225.742 124.25C225.742 124.25 243.742 145.25 245.742 152.25C247.742 159.25 269.742 177.25 269.742 177.25C269.742 177.25 253.742 189.25 256.742 195.25C259.742 201.25 235.742 175.25 235.742 175.25L207.742 134.25L225.742 124.25Z" fill="#171D26"/>
<path d="M237.742 100.25C237.742 100.25 228.742 129.25 228.742 140.25C228.742 151.25 190.742 137.25 191.742 131.25C192.742 125.25 213.742 103.25 214.742 94.25C215.742 85.25 237.742 100.25 237.742 100.25Z" fill="#F8BDC5"/>
<path opacity="0.1" d="M207.742 120.25C207.742 120.25 172.742 111.25 167.742 162.25C162.742 213.25 171.742 219.25 156.742 250.25C141.742 281.25 258.742 254.25 258.742 254.25C258.742 254.25 252.742 247.25 233.742 250.25L224.742 223.25C224.742 223.25 221.742 211.25 238.742 211.25C255.742 211.25 247.742 176.25 247.742 176.25C247.742 176.25 238.742 146.25 233.742 143.25C228.742 140.25 219.742 122.25 207.742 120.25Z" fill="#171D26"/>
<path d="M207.742 118.25C207.742 118.25 172.742 109.25 167.742 160.25C162.742 211.25 171.742 217.25 156.742 248.25C141.742 279.25 258.742 252.25 258.742 252.25C258.742 252.25 252.742 245.25 233.742 248.25L224.742 221.25C224.742 221.25 221.742 209.25 238.742 209.25C255.742 209.25 247.742 174.25 247.742 174.25C247.742 174.25 238.742 144.25 233.742 141.25C228.742 138.25 219.742 120.25 207.742 118.25Z" fill="#171D26"/>
<path d="M242.742 190.25C242.742 190.25 315.742 198.25 327.742 196.25C327.742 196.25 381.342 189.65 367.742 203.25C366.742 204.25 331.742 212.25 327.742 211.25C323.742 210.25 238.742 211.25 238.742 211.25L237.742 201.25L242.742 190.25Z" fill="#F8BDC5"/>
<path opacity="0.1" d="M186.742 165.25L239.742 213.25C239.742 213.25 249.742 193.25 252.742 193.25C255.742 193.25 216.742 134.25 216.742 134.25C216.742 134.25 206.742 122.25 200.742 128.25C194.742 134.25 176.742 130.25 186.742 165.25Z" fill="#171D26"/>
<path d="M185.742 163.25L238.742 211.25C238.742 211.25 248.742 191.25 251.742 191.25C254.742 191.25 215.742 132.25 215.742 132.25C215.742 132.25 205.742 120.25 199.742 126.25C193.742 132.25 175.742 128.25 185.742 163.25Z" fill="#171D26"/>
<path d="M228.742 118.25C246.967 118.25 261.742 103.475 261.742 85.25C261.742 67.0246 246.967 52.25 228.742 52.25C210.517 52.25 195.742 67.0246 195.742 85.25C195.742 103.475 210.517 118.25 228.742 118.25Z" fill="#F8BDC5"/>
<path opacity="0.1" d="M257.642 76.9599C263.242 79.1699 270.102 76.5199 273.402 71.4899C276.702 66.4599 276.602 59.6099 273.822 54.2699C271.042 48.9299 265.902 45.0499 260.232 43.0299C256.792 41.8099 252.962 41.1099 250.322 38.5899C248.652 36.9999 247.662 34.8499 246.412 32.9099C241.742 25.6299 233.412 21.3299 224.942 19.6399C216.472 17.9499 207.712 18.5499 199.092 19.1499C195.872 19.3799 192.092 19.9599 190.632 22.8399C189.542 24.9999 190.252 27.5899 190.112 29.9999C189.662 37.6699 181.112 41.9199 173.642 43.7599C166.172 45.5999 157.512 47.3299 153.872 54.0899C150.612 60.1599 152.942 67.5199 153.952 74.3399C155.679 86.2528 153.098 98.3909 146.672 108.57C143.402 113.7 139.192 118.26 136.602 123.77C133.737 129.927 133.073 136.882 134.722 143.47C135.212 145.4 135.902 147.36 135.562 149.32C135.17 150.931 134.395 152.423 133.302 153.67C128.919 159.278 123.409 163.903 117.127 167.249C110.845 170.594 103.931 172.584 96.832 173.09C97.972 177.38 102.122 180.09 106.072 182.09C112.812 185.557 119.915 188.266 127.252 190.17C132.182 191.45 137.342 192.36 142.362 191.49C147.382 190.62 152.272 187.67 154.362 183.01C155.562 180.31 155.742 177.26 156.802 174.5C159.192 168.31 165.562 164.57 168.982 158.88C172.252 153.44 173.522 152.8 174.352 146.52C175.182 140.24 177.012 133.46 182.172 129.77C187.572 125.9 195.172 126.64 201.172 129.61C207.172 132.58 210.882 131.42 215.892 135.78C224.681 143.415 234.517 149.752 245.102 154.6C244.102 145.88 242.492 136.15 235.412 130.96C233.412 129.47 230.882 128.33 229.822 126.05C228.132 122.42 231.022 117.99 229.712 114.2C228.402 110.41 223.422 109.01 221.212 105.57C219.332 102.65 219.842 98.6799 221.602 95.6799C223.362 92.6799 226.142 90.4599 228.912 88.3599C231.372 86.4999 233.865 84.6832 236.392 82.9099C238.675 81.461 240.725 79.674 242.472 77.6099C243.472 76.2399 244.132 73.2399 245.522 72.2699C249.022 69.8499 254.402 75.6899 257.642 76.9599Z" fill="#171D26"/>
<path d="M256.642 75.9599C262.242 78.1699 269.102 75.5199 272.402 70.4899C275.702 65.4599 275.602 58.6099 272.822 53.2699C270.042 47.9299 264.902 44.0499 259.232 42.0299C255.792 40.8099 251.962 40.1099 249.322 37.5899C247.652 35.9999 246.662 33.8499 245.412 31.9099C240.742 24.6299 232.412 20.3299 223.942 18.6399C215.472 16.9499 206.712 17.5499 198.092 18.1499C194.872 18.3799 191.092 18.9599 189.632 21.8399C188.542 23.9999 189.252 26.5899 189.112 28.9999C188.662 36.6699 180.112 40.9199 172.642 42.7599C165.172 44.5999 156.512 46.3299 152.872 53.0899C149.612 59.1599 151.942 66.5199 152.952 73.3399C154.679 85.2528 152.098 97.3909 145.672 107.57C142.402 112.7 138.192 117.26 135.602 122.77C132.737 128.927 132.073 135.882 133.722 142.47C134.212 144.4 134.902 146.36 134.562 148.32C134.17 149.931 133.395 151.423 132.302 152.67C127.919 158.278 122.409 162.903 116.127 166.249C109.845 169.594 102.931 171.584 95.832 172.09C96.972 176.38 101.122 179.09 105.072 181.09C111.812 184.557 118.915 187.266 126.252 189.17C131.182 190.45 136.342 191.36 141.362 190.49C146.382 189.62 151.272 186.67 153.362 182.01C154.562 179.31 154.742 176.26 155.802 173.5C158.192 167.31 164.562 163.57 167.982 157.88C171.252 152.44 172.522 151.8 173.352 145.52C174.182 139.24 176.012 132.46 181.172 128.77C186.572 124.9 194.172 125.64 200.172 128.61C206.172 131.58 209.882 130.42 214.892 134.78C223.681 142.415 233.517 148.752 244.102 153.6C243.102 144.88 241.492 135.15 234.412 129.96C232.412 128.47 229.882 127.33 228.822 125.05C227.132 121.42 230.022 116.99 228.712 113.2C227.402 109.41 222.422 108.01 220.212 104.57C218.332 101.65 218.842 97.6799 220.602 94.6799C222.362 91.6799 225.142 89.4599 227.912 87.3599C230.372 85.4999 232.865 83.6832 235.392 81.9099C237.675 80.461 239.725 78.674 241.472 76.6099C242.472 75.2399 243.132 72.2399 244.522 71.2699C248.022 68.8499 253.402 74.6899 256.642 75.9599Z" fill="#916168"/>
<g opacity="0.1">
<path opacity="0.1" d="M327.602 381.13C327.677 378.468 328.06 375.824 328.742 373.25L328.242 373.42C327.743 375.958 327.528 378.544 327.602 381.13V381.13Z" fill="white"/>
<path opacity="0.1" d="M332.742 418.25C324.742 418.72 299.742 407.25 294.742 401.25C294.085 400.437 293.682 399.45 293.582 398.41C293.435 399.253 293.463 400.117 293.662 400.95C293.862 401.782 294.229 402.565 294.742 403.25C299.742 409.25 324.742 420.72 332.742 420.25C341.242 419.75 369.742 421.25 370.742 408.25C370.817 407.891 370.767 407.517 370.602 407.19C368.312 419.17 341.032 417.76 332.742 418.25Z" fill="white"/>
</g>
<path d="M373.242 119.75H372.242V160.75H373.242V119.75Z" fill="#FFC550" stroke="#FFC550" stroke-width="0.25" stroke-miterlimit="10"/>
<path d="M374.242 119.75H373.242V160.75H374.242V119.75Z" fill="#FFC550" stroke="#FFC550" stroke-width="0.25" stroke-miterlimit="10"/>
<path d="M375.242 119.75H374.242V160.75H375.242V119.75Z" fill="#FFC550" stroke="#FFC550" stroke-width="0.25" stroke-miterlimit="10"/>
<path d="M376.242 119.75H375.242V160.75H376.242V119.75Z" fill="#FFC550" stroke="#FFC550" stroke-width="0.25" stroke-miterlimit="10"/>
<path d="M377.242 119.75H376.242V160.75H377.242V119.75Z" fill="#FFC550" stroke="#FFC550" stroke-width="0.25" stroke-miterlimit="10"/>
<path d="M378.242 119.75H377.242V160.75H378.242V119.75Z" fill="#FFC550" stroke="#FFC550" stroke-width="0.25" stroke-miterlimit="10"/>
<path d="M379.242 119.75H378.242V160.75H379.242V119.75Z" fill="#FFC550" stroke="#FFC550" stroke-width="0.25" stroke-miterlimit="10"/>
<defs>
<linearGradient id="paint0_linear" x1="587.882" y1="436.75" x2="587.882" y2="9.75" gradientUnits="userSpaceOnUse">
<stop stop-color="#808080" stop-opacity="0.25"/>
<stop offset="0.54" stop-color="#808080" stop-opacity="0.12"/>
<stop offset="1" stop-color="#808080" stop-opacity="0.1"/>
</linearGradient>
<linearGradient id="paint1_linear" x1="108484" y1="291603" x2="108484" y2="126763" gradientUnits="userSpaceOnUse">
<stop stop-color="#808080" stop-opacity="0.25"/>
<stop offset="0.54" stop-color="#808080" stop-opacity="0.12"/>
<stop offset="1" stop-color="#808080" stop-opacity="0.1"/>
</linearGradient>
</defs>
</svg>
