<?xml version="1.0" encoding="utf-8"?>
<!-- Svg Vector Icons : http://www.onlinewebfonts.com/icon -->
<!DOCTYPE svg PUBLIC "-//W3C//DTD SVG 1.1//EN" "http://www.w3.org/Graphics/SVG/1.1/DTD/svg11.dtd">
<svg version="1.1" xmlns="http://www.w3.org/2000/svg" xmlns:xlink="http://www.w3.org/1999/xlink" x="0px" y="0px" viewBox="0 0 1000 1000" enable-background="new 0 0 1000 1000" xml:space="preserve">
<metadata> Svg Vector Icons : http://www.onlinewebfonts.com/icon </metadata>
<g><path d="M714.4,500c0-118.2-96.2-214.4-214.4-214.4S285.6,381.8,285.6,500c0,118.2,96.2,214.4,214.4,214.4S714.4,618.2,714.4,500z M500,653.1c-84.4,0-153.1-68.7-153.1-153.1c0-84.4,68.7-153.1,153.1-153.1c84.4,0,153.1,68.7,153.1,153.1C653.1,584.4,584.4,653.1,500,653.1z"/><path d="M469.4,771.5v187.9c0,16.9,13.7,30.6,30.6,30.6c16.9,0,30.6-13.7,30.6-30.6V771.5c0-16.9-13.7-30.6-30.6-30.6C483.1,740.9,469.4,754.6,469.4,771.5z"/><path d="M469.4,40.6v187.9c0,16.9,13.7,30.6,30.6,30.6c16.9,0,30.6-13.7,30.6-30.6V40.6c0-16.9-13.7-30.6-30.6-30.6C483.1,10,469.4,23.7,469.4,40.6z"/><path d="M803.2,846.5c6,6,13.8,9,21.7,9c7.8,0,15.7-3,21.7-9c12-12,12-31.3,0-43.3L713.6,670.3c-12-12-31.3-12-43.3,0s-12,31.3,0,43.3L803.2,846.5z"/><path d="M153.5,153.5c-12,12-12,31.3,0,43.3l132.9,132.8c6,6,13.8,9,21.7,9c7.8,0,15.7-3,21.7-9c12-12,12-31.3,0-43.3L196.8,153.5C184.9,141.6,165.5,141.6,153.5,153.5z"/><path d="M959.4,469.4H771.5c-16.9,0-30.6,13.7-30.6,30.6c0,16.9,13.7,30.6,30.6,30.6h187.9c16.9,0,30.6-13.7,30.6-30.6C990,483.1,976.3,469.4,959.4,469.4z"/><path d="M10,500c0,16.9,13.7,30.6,30.6,30.6h187.9c16.9,0,30.6-13.7,30.6-30.6c0-16.9-13.7-30.6-30.6-30.6H40.6C23.7,469.4,10,483.1,10,500z"/><path d="M803.2,153.5L670.3,286.4c-12,12-12,31.3,0,43.3c6,6,13.8,9,21.7,9c7.8,0,15.7-3,21.7-9l132.8-132.9c12-12,12-31.3,0-43.3C834.5,141.5,815.1,141.6,803.2,153.5z"/><path d="M175.2,855.4c7.8,0,15.7-3,21.7-9l132.9-132.8c12-12,12-31.3,0-43.3c-12-12-31.3-12-43.3,0L153.5,803.2c-12,12-12,31.3,0,43.3C159.5,852.4,167.4,855.4,175.2,855.4z"/></g>
</svg>