<?xml version="1.0" encoding="utf-8"?>
<!-- Svg Vector Icons : http://www.onlinewebfonts.com/icon -->
<!DOCTYPE svg PUBLIC "-//W3C//DTD SVG 1.1//EN" "http://www.w3.org/Graphics/SVG/1.1/DTD/svg11.dtd">
<svg version="1.1" xmlns="http://www.w3.org/2000/svg" xmlns:xlink="http://www.w3.org/1999/xlink" x="0px" y="0px" viewBox="0 0 1000 1000" enable-background="new 0 0 1000 1000" xml:space="preserve">
<metadata> Svg Vector Icons : http://www.onlinewebfonts.com/icon </metadata>
<g><path d="M941,460.8c-8.9,0-39.2,0-48.1,0c-27,0-48.9,17.5-48.9,39.2c0,21.7,21.9,39.3,48.9,39.3c9,0,39.2,0,48.1,0c27.1,0,49-17.6,49-39.3C990,478.3,968.1,460.8,941,460.8z M500,230.5c-149.5,0-269.6,120.1-269.6,269.5c0,149.5,120,269.6,269.6,269.6c149.5,0,269.5-120,269.5-269.6C769.5,350.6,649.5,230.5,500,230.5z M500,696c-108.3,0-196-87.6-196-196c0-108.2,87.7-196,196-196s196,87.8,196,196C696,608.4,608.3,696,500,696z M155.9,500c0-21.7-20.9-39.2-48-39.2c-9,0-40,0-48.9,0c-27.1,0-49,17.5-49,39.2c0,21.7,21.9,39.3,49,39.3c9,0,39.9,0,48.9,0C135,539.3,155.9,521.7,155.9,500z M500,157.1c21.6,0,39.2-21.9,39.2-49c0-9,0-40,0-49c0-27.2-17.5-49.1-39.2-49.1c-21.7,0-39.3,21.9-39.3,49c0,9,0,40,0,49C460.7,135.1,478.4,157.1,500,157.1z M500,843c-21.6,0-39.3,21.9-39.3,49c0,9,0,40,0,48.9c0,27.2,17.6,49.1,39.3,49.1c21.7,0,39.2-21.9,39.2-49c0-9,0-40,0-48.9C539.2,865,521.6,843,500,843z M860.8,194.6c19.1-19.2,22.2-47.1,7-62.4c-15.3-15.3-43.2-12.3-62.4,6.9c-5.2,5.3-29,29-34.3,34.3c-19.1,19.1-22.2,47-6.9,62.4c15.3,15.3,43.2,12.3,62.4-6.9C831.9,223.6,855.6,199.8,860.8,194.6L860.8,194.6z M173.4,771.2c-5.3,5.3-29,29.1-34.3,34.3c-19.1,19.1-22.2,47-7,62.3c15.3,15.3,43.3,12.3,62.4-6.9c5.2-5.2,29-29,34.3-34.3c19.1-19.1,22.2-47,6.9-62.3C220.3,749,192.4,752.1,173.4,771.2z M194.5,139.1c-19.2-19.2-47-22.3-62.4-6.9c-15.4,15.3-12.2,43.2,6.9,62.4c5.3,5.3,29,29.1,34.3,34.4c19.2,19,47,22.2,62.3,6.9c15.3-15.3,12.3-43.2-6.9-62.4C223.6,168.1,199.8,144.4,194.5,139.1z M771.1,826.6c5.3,5.3,29.1,29.1,34.3,34.4c19.2,19,47.1,22.1,62.4,6.9c15.3-15.3,12.1-43.3-7-62.4c-5.3-5.3-29-29-34.3-34.3c-19.1-19-47.1-22.2-62.4-6.9C748.9,779.6,752.1,807.5,771.1,826.6z"/></g>
</svg>